<svg width="32" height="32" viewBox="0 0 32 32" fill="none" xmlns="http://www.w3.org/2000/svg">
<rect width="32" height="32" rx="6" fill="#28283D"/>
<g clip-path="url(#clip0)">
<path d="M16.3144 26.6667C15.2988 19.6962 15.426 12.377 16.3144 5.33334C17.1777 12.3847 17.2972 19.7097 16.3144 26.6667Z" fill="white"/>
<path d="M4.21392 12.271C4.61669 12.6815 4.89612 13.2346 5.29697 13.3483C7.05258 13.8127 8.83518 14.1982 10.6255 14.5161C11.9128 14.7435 13.2271 14.8091 14.6281 14.9574C14.4913 18.4263 14.3545 21.8816 14.2177 25.3273H14.1117C13.9055 22.77 13.6491 20.2166 13.5335 17.6554C13.4873 16.7285 13.123 16.4587 12.2828 16.2371C10.0512 15.657 7.85427 14.9478 5.67661 14.2328C5.19902 14.0487 4.76084 13.7753 4.38543 13.4273C3.92678 13.0245 3.88631 12.5562 4.21392 12.271Z" fill="white"/>
<path d="M18.2242 15.0422C20.7911 14.6684 23.2347 14.335 25.661 13.9399C26.3524 13.8071 27.0276 13.6003 27.6748 13.3232C28.3011 13.0766 28.7174 12.6719 27.9928 11.7623C28.9737 12.5582 29.0508 13.011 28.3185 13.5217C27.6203 14.0275 26.8506 14.4263 26.0348 14.705C24.179 15.3024 22.2962 15.817 20.4018 16.2795C19.6984 16.451 19.3901 16.7381 19.3477 17.4666C19.2243 19.4804 19.0509 21.4904 18.8967 23.5023C18.9002 23.8811 18.7967 24.2532 18.598 24.5758C18.4721 21.3986 18.3475 18.2207 18.2242 15.0422Z" fill="white"/>
</g>
<defs>
<clipPath id="clip0">
<rect width="24.808" height="21.3333" fill="white" transform="translate(4 5.33334)"/>
</clipPath>
</defs>
</svg>
